<?xml version="1.0" encoding="iso-8859-1"?>
<!-- Uploaded to: SVG Repo, www.svgrepo.com, Generator: SVG Repo Mixer cryptoTools -->
<svg fill="#000000" height="800px" width="800px" version="1.1" id="Layer_1" xmlns="http://www.w3.org/2000/svg" xmlns:xlink="http://www.w3.org/1999/xlink"
	 viewBox="0 0 491.52 491.52" xml:space="preserve">
<g>
	<g>
		<path d="M59.43,378.518c-0.696-1.02-1.397-2.028-2.058-3.083c-1.125-1.786-2.18-3.644-3.206-5.54
			c-0.469-0.866-0.943-1.72-1.39-2.607c-1.007-1.995-1.941-4.053-2.839-6.149c-0.412-0.96-0.829-1.913-1.216-2.892
			c-0.798-2.011-1.526-4.072-2.224-6.164c-0.399-1.19-0.798-2.375-1.164-3.589c-0.233-0.778-0.525-1.514-0.745-2.301v51.376
			l8.312-4.784c0.904-1.056,2.052-1.856,3.328-2.336c0.935-0.76,1.784-1.56,2.536-2.384c1.632-1.792,2.532-4.192,2.536-6.744
			C60.638,380.434,60.064,379.44,59.43,378.518z"/>
	</g>
</g>
<g>
	<g>
		<path d="M164.715,348.116c-0.493,1.66-1.038,3.276-1.591,4.892c-0.538,1.569-1.077,3.13-1.671,4.655
			c-0.607,1.559-1.268,3.067-1.934,4.577c-0.653,1.478-1.306,2.951-2.014,4.378c-0.723,1.46-1.498,2.86-2.279,4.262
			c-0.759,1.363-1.515,2.723-2.325,4.028c-0.841,1.354-1.733,2.639-2.63,3.928c-0.577,0.829-1.096,1.731-1.696,2.532
			c0.016,2.536,0.916,4.912,2.544,6.696c0.788,0.872,1.732,1.744,2.776,2.576c1.18,0.456,2.244,1.176,3.072,2.144l0.612,0.712
			l7.705,4.072v-51.2C165.116,346.966,164.891,347.524,164.715,348.116z"/>
	</g>
</g>
<g>
	<g>
		<path d="M146.22,296.944l-29.048-9.488c-3.888,2.424-8.536,4.408-13.876,5.912c-5.12,1.44-10.484,2.168-15.944,2.168h-18.34
			c-11.5,1.096-12.964,11.248-13.132,13.272c0.021,25.016,7.304,48.768,20,64.584l0.828,1.096
			c6.14,7.256,15.736,15.432,28.252,15.432c12.492,0,22.076-8.152,27.92-14.992l1.088-1.456
			c11.074-13.755,18.035-33.482,19.677-55.226c0.235-3.106,0.361-6.253,0.375-9.43C153.02,302.92,148.092,298.448,146.22,296.944z"
			/>
	</g>
</g>
<g>
	<g>
		<path d="M194.248,431.448l-23.884-12.656c-0.624,1.816-1.64,3.528-3.044,5l-13.172,13.888c0.76,0.904,1.412,1.912,1.928,3.008
			c2.344,4.984,1.552,10.664-2.056,14.832l-31.164,36h87.016v-36.192C209.872,442.152,195.88,432.52,194.248,431.448z"/>
	</g>
</g>
<g>
	<g>
		<path d="M164.848,267.56c-3.248-9.128-10.444-10.376-10.516-10.384c-2.228-0.312-4.232-1.528-5.539-3.36
			c-1.304-1.832-1.8-4.12-1.369-6.328c0.68-3.464,0.3-5.848-1.132-7.112c-0.727-0.641-1.824-1-3.016-1H90.988
			c-25.584,0-46.4,20.336-46.4,45.328v8.264c0.189-0.295,0.472-0.558,0.672-0.849c0.637-0.927,1.359-1.805,2.124-2.685
			c0.549-0.632,1.091-1.252,1.71-1.851c0.885-0.857,1.901-1.62,2.937-2.387c0.691-0.51,1.334-1.04,2.095-1.5
			c1.253-0.76,2.686-1.364,4.139-1.962c0.748-0.309,1.405-0.687,2.209-0.947c2.358-0.762,4.92-1.337,7.784-1.603l19.096-0.032
			c3.96,0,7.832-0.528,11.504-1.56c4.968-1.392,9.036-3.312,11.764-5.544c0.663-0.54,1.409-0.922,2.184-1.228
			c0.234-0.091,0.468-0.154,0.708-0.226c0.596-0.174,1.199-0.276,1.819-0.312c0.161-0.01,0.312-0.082,0.473-0.082
			c0.08,0,0.158,0.036,0.238,0.038c0.775,0.021,1.55,0.124,2.306,0.369l34.236,11.184c0.704,0.224,1.376,0.552,1.996,0.96
			c0.193,0.13,0.624,0.436,1.177,0.853c0.217,0.16,0.413,0.331,0.675,0.537c0.48,0.378,0.993,0.816,1.594,1.345
			c0.339,0.297,0.637,0.569,1.003,0.913c0.698,0.654,1.418,1.406,2.175,2.228c0.293,0.318,0.559,0.574,0.856,0.917
			c1.015,1.174,2.024,2.493,2.994,3.953c0.075,0.111,0.156,0.189,0.23,0.302v-23.687
			C165.284,269.232,165.136,268.368,164.848,267.56z"/>
	</g>
</g>
<g>
	<g>
		<path d="M132.228,444.32c-1.34-3.024-0.732-6.56,1.544-8.96l20.02-21.112l-7.636-8.904c-0.003-0.003-0.003-0.007-0.003-0.007
			l-0.124-0.145c-0.072-0.048-0.144-0.096-0.212-0.144c-2.597-1.824-4.896-3.84-6.828-5.967c-1.199-1.32-2.216-2.77-3.111-4.289
			c-9.416,7.555-19.925,11.513-30.917,11.513c-11,0-21.515-3.966-30.943-11.538c-0.899,1.532-1.921,2.994-3.129,4.322
			c-1.976,2.168-4.284,4.184-6.856,5.984c-0.068,0.04-0.132,0.088-0.196,0.128l-0.118,0.134c-0.002,0.002-0.003,0.007-0.003,0.007
			l-7.638,8.907l20.019,21.112c2.276,2.4,2.885,5.936,1.544,8.96c-1.072,2.424-3.236,4.144-5.756,4.688l33.051,38.186l33.049-38.186
			C135.464,448.464,133.3,446.744,132.228,444.32z"/>
	</g>
</g>
<g>
	<g>
		<path d="M55.844,455.512c-3.604-4.168-4.392-9.848-2.048-14.824c0.516-1.096,1.164-2.104,1.924-3.001l-13.176-13.895
			c-1.4-1.48-2.412-3.184-3.036-5L15.332,431.6h0.004C15.38,431.6,0,441.464,0,455.328v36.192h87.008L55.844,455.512z"/>
	</g>
</g>
<g>
	<g>
		<polygon points="400.152,11.31 400.152,89.256 479.656,89.256 		"/>
	</g>
</g>
<g>
	<g>
		<path d="M391.96,105.64c-4.528,0-8.192-3.664-8.192-8.192V0H121.252v222.992h22.024c5.2,0,10.116,1.809,13.836,5.088
			c0.771,0.677,1.633,1.61,2.491,2.703c1.078-0.521,2.249-0.87,3.525-0.87H449.64c4.528,0,8.191,3.664,8.191,8.191
			c0,4.528-3.663,8.192-8.191,8.192H168.808c4.483,3.318,8.839,8.358,11.476,15.768c0.916,2.577,1.384,5.28,1.384,8.049v14.312
			H449.64c4.528,0,8.191,3.664,8.191,8.192c0,4.527-3.663,8.191-8.191,8.191H181.668v38.128H449.64c4.528,0,8.191,3.664,8.191,8.192
			s-3.663,8.192-8.191,8.192H181.668v38.12H449.64c4.528,0,8.191,3.664,8.191,8.192c0,4.527-3.663,8.191-8.191,8.191H188.425
			l13.783,7.296c0.147,0.08,0.296,0.168,0.444,0.257c0.857,0.525,18.806,11.773,22.79,30.576H449.64
			c4.528,0,8.191,3.664,8.191,8.192s-3.663,8.192-8.191,8.192H226.256v27.184H491.52V105.64H391.96z M181.405,180.792h-29.743
			V65.636h29.743V180.792z M237.576,180.792h-29.743V20.477h29.743V180.792z M293.748,180.792h-29.744V88.26h29.744V180.792z
			 M349.918,180.792h-29.743V49.106h29.743V180.792z"/>
	</g>
</g>
</svg>
