<svg width="1920" height="298" viewBox="0 0 1920 298" fill="none" xmlns="http://www.w3.org/2000/svg">
<g clip-path="url(#clip0_427_3)">
<path d="M0 293.905C0 293.905 384 197.912 960 197.912C1536 197.912 1920 293.905 1920 293.905V-128H0V291.985V293.905Z" fill="white"/>
<path d="M890 42H918.387V69.0481H890V42Z" fill="#D9D9D9"/>
<rect x="890.42" y="42.4199" width="27.6826" height="26.145" stroke="#301E03" stroke-width="1.30285"/>
<path fill-rule="evenodd" clip-rule="evenodd" d="M920 41H888V70H920V41ZM894.707 46.4591C894.827 46.3463 894.979 46.2986 895.254 46.287C895.33 46.2842 895.87 46.2842 896.454 46.2863C897.039 46.2885 897.935 46.2907 898.446 46.2899C899.466 46.2892 900.929 46.2892 902.279 46.2899C902.758 46.2899 903.692 46.2885 904.354 46.287C905.334 46.2849 905.573 46.2863 905.641 46.2943C905.95 46.3304 906.108 46.4469 906.186 46.6978C906.213 46.7838 906.23 46.9162 906.267 47.3334C906.285 47.5366 906.311 47.8034 906.325 47.9263C906.364 48.2698 906.369 48.3284 906.397 48.6813C906.427 49.0674 906.433 49.1658 906.448 49.408C906.474 49.8375 906.486 49.9699 906.506 50.0508C906.536 50.1694 906.603 50.2381 906.72 50.2707C906.763 50.2822 906.839 50.283 907.793 50.283C908.839 50.283 908.892 50.2844 909.185 50.3126C909.488 50.3408 909.822 50.3972 910.022 50.4536C910.063 50.4652 910.17 50.5006 910.259 50.5324C910.342 50.5621 910.475 50.6093 910.565 50.6413L910.584 50.6481C910.872 50.7508 911.031 50.8195 911.234 50.928C911.53 51.0871 911.667 51.1861 911.872 51.3893C912.125 51.6424 912.304 51.8485 912.394 51.9939C912.571 52.2773 912.701 52.6273 912.76 52.978C912.797 53.1986 912.804 53.2839 912.804 53.6021C912.804 53.9043 912.802 53.939 912.77 54.1589C912.706 54.6122 912.553 55.041 912.34 55.3607C912.258 55.4843 911.976 55.8314 911.824 55.9963C911.66 56.172 911.475 56.3108 911.018 56.5957C910.711 56.7874 910.648 56.8539 910.707 56.9248C910.737 56.9595 910.808 56.9913 911.026 57.065C911.357 57.1771 911.496 57.2371 911.94 57.4599C912.442 57.7129 912.52 57.7665 912.866 58.0984C913.199 58.4173 913.301 58.5481 913.446 58.8374C913.587 59.1201 913.699 59.4224 913.776 59.7304C913.836 59.9647 913.852 60.118 913.852 60.4246C913.852 60.7233 913.834 60.9113 913.786 61.1246C913.741 61.3278 913.611 61.7226 913.505 61.9786C913.345 62.3683 913.105 62.7154 912.774 63.0351C912.465 63.3344 912.023 63.6584 911.712 63.8139C911.562 63.8891 911.302 63.9968 910.84 64.174C910.441 64.3273 910.164 64.396 909.696 64.456C909.647 64.4622 909.608 64.4676 909.57 64.4721C909.333 64.5002 909.092 64.4986 906.35 64.4986C904.019 64.4994 903.429 64.4972 903.356 64.49C903.162 64.4697 903.036 64.4242 902.952 64.3432C902.828 64.2239 902.829 64.046 902.954 63.9201C903.039 63.8363 903.129 63.8001 903.385 63.7473C903.583 63.7068 903.66 63.6866 903.755 63.6497C903.948 63.5745 904.086 63.4675 904.189 63.3135C904.306 63.1392 904.364 62.9801 904.395 62.753C904.407 62.6699 904.408 62.4558 904.412 59.998C904.416 57.5972 904.418 57.3275 904.428 57.2733C904.476 57.0289 904.583 56.8994 904.797 56.8271C904.92 56.786 904.93 56.7859 905.639 56.7823L905.641 56.7823C906.037 56.7801 906.443 56.7823 906.668 56.7874C907.181 56.7989 907.267 56.791 907.333 56.7252L907.364 56.6934L907.361 56.6449C907.357 56.5762 907.327 56.5176 907.21 56.3499C907.158 56.274 907.054 56.1098 906.979 55.9847C906.84 55.7526 906.808 55.7049 906.606 55.4229C906.543 55.3346 906.411 55.1351 906.314 54.9796C906.017 54.5059 905.998 54.4756 905.89 54.3273C905.726 54.1024 905.676 54.028 905.562 53.8371C905.421 53.6028 905.408 53.5833 905.27 53.3902C905.206 53.2998 905.128 53.187 905.097 53.1393C904.812 52.7018 904.716 52.5535 904.634 52.4176C904.455 52.1226 904.446 52.1095 904.084 51.6243C903.948 51.4436 903.842 51.3409 903.702 51.2563C903.609 51.2013 903.45 51.1261 903.313 51.0748C903.073 50.9837 902.969 50.9142 902.913 50.8087C902.81 50.6142 902.914 50.4001 903.147 50.3264C903.165 50.3207 903.18 50.3159 903.196 50.3116C903.296 50.2838 903.405 50.2837 904.34 50.2794L904.354 50.2793C905.311 50.275 905.328 50.2749 905.375 50.2598C905.505 50.2201 905.546 50.1412 905.527 49.967C905.51 49.8187 905.391 49.3798 905.314 49.1838C905.276 49.0884 905.119 48.7717 905.005 48.562C904.846 48.2684 904.618 47.9466 904.455 47.7846C904.246 47.5756 903.857 47.3269 903.483 47.1627C903.274 47.0709 903.031 47.0087 902.763 46.9783C902.645 46.9646 902.1 46.9501 901.957 46.9566C901.841 46.9617 901.778 46.974 901.728 47.0015C901.653 47.0427 901.605 47.1237 901.592 47.2329C901.582 47.3189 901.582 58.5149 901.592 58.6798C901.603 58.8714 901.632 58.9864 901.701 59.1237C901.754 59.23 901.821 59.324 901.906 59.4094C902.1 59.6061 902.287 59.6719 902.81 59.7268C903.087 59.7565 903.184 59.7818 903.277 59.8505C903.327 59.8866 903.372 59.951 903.389 60.0081C903.42 60.1115 903.384 60.2294 903.296 60.3089C903.236 60.3646 903.11 60.408 902.966 60.4239C902.794 60.4427 902.112 60.4478 900.102 60.4441C898.117 60.4405 897.916 60.4384 897.776 60.4174C897.6 60.3906 897.478 60.3169 897.422 60.2041C897.404 60.165 897.401 60.1535 897.401 60.0884C897.401 60.0218 897.404 60.0117 897.425 59.9676C897.464 59.8845 897.54 59.823 897.649 59.7847C897.729 59.7572 897.788 59.7463 897.994 59.7225C898.514 59.6639 898.697 59.5967 898.902 59.3913C899.075 59.217 899.159 59.0312 899.183 58.7615C899.189 58.7043 899.191 56.9067 899.191 52.9621C899.191 48.0601 899.19 47.2387 899.181 47.1974C899.153 47.0695 899.084 46.9986 898.957 46.9689C898.912 46.9581 898.856 46.9574 898.511 46.9588C897.991 46.961 897.841 46.9726 897.594 47.0297C897.258 47.1078 897.002 47.2264 896.675 47.4541C896.421 47.632 896.277 47.768 896.121 47.9733C895.963 48.1838 895.808 48.4398 895.655 48.7456C895.538 48.9806 895.471 49.1535 895.409 49.3841C895.399 49.4218 895.386 49.4714 895.374 49.5158C895.366 49.5429 895.359 49.5681 895.354 49.5873C895.328 49.685 895.292 49.8419 895.239 50.0986C895.184 50.3632 895.135 50.4869 895.045 50.5816C894.989 50.6402 894.925 50.6821 894.852 50.7067C894.788 50.7284 894.658 50.7306 894.599 50.7103C894.425 50.6503 894.332 50.5259 894.294 50.3047C894.282 50.2316 894.282 49.9539 894.294 49.8093C894.299 49.7515 894.312 49.5823 894.321 49.4333C894.46 47.3175 894.484 47.0196 894.531 46.8048C894.565 46.6479 894.62 46.5416 894.707 46.4591ZM908.759 51.2512C908.451 51.1124 908.161 51.0531 907.727 51.0393C907.419 51.0292 906.897 51.0249 906.842 51.0321C906.783 51.0393 906.72 51.0704 906.699 51.103C906.678 51.1341 906.677 51.1941 906.696 51.2505C906.729 51.3445 906.834 51.5173 906.972 51.7039C907.063 51.8268 907.148 51.957 907.268 52.1558C907.406 52.3843 907.495 52.5217 907.635 52.7199C907.848 53.025 907.986 53.2441 908.216 53.6418C908.323 53.8291 908.433 53.9998 908.576 54.2001C908.689 54.3606 908.897 54.6874 909.039 54.9326C909.134 55.0946 909.211 55.2103 909.341 55.3874C909.485 55.5819 909.522 55.6246 909.569 55.6477C909.614 55.6702 909.639 55.6716 909.676 55.6521C909.765 55.6065 909.851 55.4214 909.936 55.0946C910.031 54.7287 910.059 54.4929 910.065 54.02C910.07 53.6071 910.054 53.3685 910.005 53.0633C909.958 52.7741 909.841 52.3988 909.74 52.2101C909.644 52.0322 909.428 51.7509 909.247 51.5694C909.106 51.4291 908.994 51.3561 908.759 51.2512ZM908.823 57.5625C908.57 57.5105 908.418 57.4989 907.879 57.4888C907.072 57.4743 906.992 57.4808 906.896 57.569C906.861 57.6009 906.833 57.6587 906.814 57.7325C906.803 57.778 906.802 57.9603 906.8 59.9871C906.798 62.2071 906.8 62.5592 906.823 62.7473C906.852 62.9859 906.915 63.1811 907.012 63.3279C907.052 63.3908 907.196 63.5318 907.265 63.5767C907.508 63.7358 907.777 63.7799 908.205 63.73C908.792 63.6613 909.289 63.5311 909.68 63.3424C909.853 63.2585 909.952 63.1891 910.215 62.9627C910.518 62.7017 910.602 62.5976 910.75 62.2939C910.877 62.0357 910.934 61.8614 910.995 61.5491C911.051 61.2649 911.065 61.1101 911.065 60.7847C911.065 60.4789 911.048 60.2301 911.013 60.0052C910.95 59.5923 910.9 59.4014 910.781 59.1013C910.691 58.8764 910.597 58.7094 910.483 58.5662C910.407 58.4729 910.293 58.3464 910.214 58.269C910.013 58.0723 909.883 57.987 909.537 57.8236C909.19 57.6602 909.051 57.6088 908.823 57.5625Z" fill="#301E03"/>
<path d="M894.151 51.2391L894.553 47.0881L895.356 49.4984L895.088 51.2391H894.151Z" fill="#D9D9D9"/>
<path d="M897.231 59.8355L898.302 59.6748V59.8355L899.775 60.3443L897.231 60.4782V59.8355Z" fill="#D9D9D9"/>
<path d="M902.587 63.8528L903.658 63.6921V63.8528L905.533 64.4955H902.587V63.8528Z" fill="#D9D9D9"/>
<path d="M902.587 50.9445L903.658 51.1052V50.9445L905.533 50.3018H902.587V50.9445Z" fill="#D9D9D9"/>
<path d="M903.524 59.8355L902.453 59.6748V59.8355L900.98 60.3443L903.524 60.4782V59.8355Z" fill="#D9D9D9"/>
<path d="M612 209.5V177V85.5L649.5 57V156H638V104.5L654 93L669.5 104.5V177H690.5V112H735V156H715.5V68H756.5V177H788V76L812.5 64.5L833.5 76V156H818.5V53.5L866 17V177H886.5V39H922V156H907V121.5L934.5 104.5V177H955V121.5H984V81L1022.5 53.5V156H1004V39L1030 24.5L1054 39V177H1073V57L1120 20.5V156H1104.5V104.5H1137.5V177H1159.5V68H1201V156H1184.5V112H1226V177V205.5" stroke="#301E03" stroke-width="5"/>
</g>
<defs>
<clipPath id="clip0_427_3">
<rect width="1920" height="298" fill="white"/>
</clipPath>
</defs>
</svg>
