<svg width="146" height="152" viewBox="0 0 146 152" fill="none" xmlns="http://www.w3.org/2000/svg">
<g clip-path="url(#clip0_429_3047)">
<rect width="146" height="152" rx="21" fill="black"/>
<g clip-path="url(#clip1_429_3047)">
<path d="M99.4191 61.8555C107.396 67.3323 117.169 70.5547 127.723 70.5547V51.0477C125.726 51.0481 123.733 50.8481 121.779 50.4504V65.8052C111.225 65.8052 101.454 62.5827 93.4751 57.1063V96.9145C93.4751 116.829 76.6669 132.971 55.9341 132.971C48.1982 132.971 41.008 130.725 35.0352 126.872C41.8522 133.567 51.3592 137.72 61.8769 137.72C82.6109 137.72 99.42 121.578 99.42 101.663V61.8555H99.4191ZM106.752 42.1753C102.675 37.8976 99.9983 32.3694 99.4191 26.2578V23.7488H93.7863C95.2041 31.5166 100.04 38.153 106.752 42.1753ZM48.1486 111.591C45.8709 108.723 44.64 105.214 44.6455 101.606C44.6455 92.4978 52.3335 85.113 61.8184 85.113C63.586 85.1126 65.3431 85.3725 67.0277 85.8859V65.9429C65.059 65.6838 63.0722 65.5738 61.0861 65.6141V81.1368C59.4003 80.6234 57.6424 80.3626 55.8743 80.3643C46.3895 80.3643 38.7019 87.7483 38.7019 96.8575C38.7019 103.298 42.5446 108.874 48.1486 111.591Z" fill="#FF004F"/>
<path d="M93.475 57.1059C101.454 62.5823 111.225 65.8048 121.779 65.8048V50.45C115.888 49.2448 110.673 46.288 106.752 42.1753C100.04 38.1526 95.2041 31.5162 93.7862 23.7488H78.9903V101.662C78.9568 110.745 71.282 118.1 61.8175 118.1C56.2402 118.1 51.2853 115.546 48.1473 111.591C42.5437 108.874 38.701 103.298 38.701 96.8579C38.701 87.7495 46.3885 80.3647 55.8734 80.3647C57.6907 80.3647 59.4422 80.6364 61.0852 81.1372V65.6145C40.7167 66.0187 24.3354 82.0034 24.3354 101.662C24.3354 111.476 28.4148 120.372 35.0355 126.873C41.0084 130.725 48.1986 132.971 55.9345 132.971C76.6677 132.971 93.4754 116.828 93.4754 96.9145V57.1059H93.475Z" fill="white"/>
<path d="M121.779 50.4499V46.2981C116.467 46.3058 111.259 44.877 106.752 42.1748C110.742 46.3702 115.996 49.263 121.779 50.4499ZM93.7865 23.7487C93.6512 23.0064 93.5474 22.2591 93.4753 21.509V19H73.0461V96.914C73.0135 105.996 65.3391 113.351 55.8737 113.351C53.0948 113.351 50.4711 112.717 48.1476 111.591C51.2856 115.546 56.2405 118.099 61.8177 118.099C71.2814 118.099 78.9575 110.745 78.9906 101.662V23.7487H93.7865ZM61.0863 65.6144V61.1945C59.3793 60.9704 57.6583 60.858 55.9352 60.8588C35.2003 60.8584 18.3921 77.0016 18.3921 96.914C18.3921 109.398 24.998 120.4 35.0362 126.872C28.4155 120.372 24.3361 111.475 24.3361 101.662C24.3361 82.0033 40.717 66.0186 61.0863 65.6144Z" fill="#00F2EA"/>
</g>
</g>
<defs>
<clipPath id="clip0_429_3047">
<rect width="146" height="152" rx="21" fill="white"/>
</clipPath>
<clipPath id="clip1_429_3047">
<rect width="424" height="123.545" fill="white" transform="translate(15 19)"/>
</clipPath>
</defs>
</svg>
