<?xml version="1.0" encoding="iso-8859-1"?>
<!-- Uploaded to: SVG Repo, www.svgrepo.com, Generator: SVG Repo Mixer Tools -->
<!DOCTYPE svg PUBLIC "-//W3C//DTD SVG 1.1//EN" "http://www.w3.org/Graphics/SVG/1.1/DTD/svg11.dtd">
<svg fill="#000000" version="1.1" id="Capa_1" xmlns="http://www.w3.org/2000/svg" xmlns:xlink="http://www.w3.org/1999/xlink" 
	 width="800px" height="800px" viewBox="0 0 153.635 153.635"
	 xml:space="preserve">
<g>
	<g>
		<path d="M127.017,39.835l-0.73,1.005l4.47,5.787l2.594-1.604c-0.572-0.197-1.108-0.548-1.547-1.108
			C131.803,43.909,128.368,41.531,127.017,39.835z"/>
		<path d="M106.648,6.104c-0.177-0.088-0.371-0.152-0.554-0.219c-2.034-0.868-4.11-1.62-6.248-2.29
			c-0.377-0.131-0.755-0.216-1.12-0.335c-1.961-0.587-3.977-1.124-6.017-1.546c-0.45-0.106-0.913-0.183-1.363-0.274
			C86.561,0.518,81.641,0,76.599,0c-0.548,0-1.072,0.067-1.62,0.08v15.855c-0.194-0.216-0.457-0.423-0.542-0.654L69.678,2.363
			c-0.655-1.76-2.643-2.676-4.421-2.04L36.164,11.061c-1.803,0.667-2.725,2.648-2.058,4.451l4.752,12.921
			c0.667,1.745,0.38,3.922-0.636,4.78c-0.993,0.843-4.896,2.67-6.622,1.885l-12.471-5.77c-1.702-0.779-3.766-0.024-4.558,1.705
			L1.583,59.229c-0.804,1.696-0.024,3.76,1.696,4.546l12.44,5.767c1.732,0.761,3.054,2.512,3.005,3.83
			c-0.119,1.303-1.611,5.349-3.361,6.007L2.448,84.14c-1.745,0.639-2.673,2.624-2.025,4.421l10.738,29.148
			c0.661,1.747,2.673,2.697,4.421,2.028l12.918-4.774c1.772-0.657,3.952-0.378,4.802,0.657c0.886,0.986,2.682,4.871,1.896,6.625
			l-5.775,12.446c-0.804,1.699-0.024,3.764,1.684,4.562l28.189,12.988c1.727,0.797,3.809,0.048,4.564-1.656l5.763-12.483
			c0.792-1.705,2.518-3.032,3.846-2.966c0.344,0.019,0.892,0.141,1.51,0.348v18.023c0.548,0.013,1.072,0.128,1.632,0.128
			c42.417-0.012,76.809-34.409,76.809-76.827C153.426,45.036,134.141,17.795,106.648,6.104z M135.219,54.714
			c0,0-1.357,3.72-5.475,5.754c0,0-5.82-14.197-13.066-17.247c0,0,7.574,13.195,13.749,19.287c0,0,1.711,1.029,4.457-0.319
			c0,0,0.335,11.149-6.175,18.59c0,0-1.692,4.056-1.022,8.451c0,0,1.022,7.436-4.47,11.18c0,0-2.43,1.669-2.43,5.725
			c0,0,0,3.385-3.757,3.385c0,0-4.122,8.751-15.795,7.052c0,0,0-6.351-3.397-13.798c0,0-3.118-4.067,1.656-8.805
			c0,0,4.506-2.021-2.351-9.798c0,0-4.481-3.745-2.083-7.782c0,0,0.694-3.4-1.022-4.402c0,0-4.799,1.002-5.834-2.362
			c0,0-8.917,3.364-13.058,1.684c0,0-0.089,0.049-0.168,0.098v39.874c-13.262-0.779-25.465-9.2-30.373-22.475
			c-6.579-17.841,2.558-37.688,20.432-44.292c3.273-1.203,6.616-1.714,9.94-1.906V36.45c0.786-0.049,6.601-0.429,9.804-1.665
			c0,0,4.457-1.364,7.173-0.679c0,0,1.735,2.701,0.7,4.39c0,0,4.792-1.689,7.91,2.013c0,0,3.075-0.316,2.387-2.686
			c0,0,7.897,4.744,12.032,2.019c0,0,1.017-6.759-2.728-6.415c0,0-5.846,0.338-8.61-3.729c0,0-3.081-1.346-2.411,0.694
			c0,0,0.365,2.031,2.765,2.691c0,0-0.683,2.04-3.081,1.029c0,0-2.059-0.679-2.753-5.088c0,0-5.504-1.005-6.868-3.373
			c0,0-3.41,1.017,4.457,4.746c0,0,3.105,2.338-1.035,4.04c0,0-2.752-1.354,0.341-2.015c0,0-0.682-1.37-3.763-2.387
			c0,0-2.059-2.021-2.411-3.373c0,0-4.104,2.719-5.828,1.005c0,0-0.7,3.379-2.749,3.379c0,0-0.338,4.034-5.331,3.422v-6.062
			c0.941,0.034,1.852-0.018,2.226-0.398c1.042-1.005,1.727-2.698-1.017-3.355c0,0-0.579-0.149-1.209-0.441v-3.397
			c0.78-0.25,1.839-0.137,2.923,1.446c0,0,3.435-2.363,7.892-2.707c0,0,7.91-3.416,5.827-5.767c0,0-5.097,3.042-7.526,1.383
			c0,0-6.765-2.238-1.254-7.618c23.852,2.281,44.128,16.767,54.638,37.086c-1.047,0.426-2.466,0.819-3.744,0.481
			C134.793,46.196,139.188,51.122,135.219,54.714z"/>
	</g>
</g>
</svg>