<svg width="800" height="800" viewBox="0 0 73 73" xmlns="http://www.w3.org/2000/svg" xmlns:xlink="http://www.w3.org/1999/xlink" overflow="hidden"><defs></defs><g id="databases-and-servers/servers/proxy-server" fill="none" fill-rule="evenodd"><g id="container" stroke="#293A4B" stroke-width="2" fill="#FFFFFF" fill-rule="nonzero" transform="translate(2 2)"><rect x="-1" y="-1" rx="14" width="71" height="71" id="mask"/></g><g id="server" fill-rule="nonzero" transform="translate(13 13)"><path d="M21.8793 27.5517 21.8793 33.2241 4.05172 33.2241C2.71073 33.2281 1.62461 34.3142 1.62069 35.6552L1.62069 42.9483 4.86207 42.9483 4.86207 36.4655 21.8793 36.4655 21.8793 42.9483 25.1207 42.9483 25.1207 36.4655 42.1379 36.4655 42.1379 42.9483 45.3793 42.9483 45.3793 35.6552C45.3754 34.3142 44.2893 33.2281 42.9483 33.2241L25.1207 33.2241 25.1207 27.5517 21.8793 27.5517Z" id="Shape" fill="#F3D55B"/><path d="M33.2241 9.72414C33.8692 9.72328 34.488 9.97913 34.9441 10.4352 35.4002 10.8913 35.656 11.5102 35.6552 12.1552L35.6552 17.0172C35.656 17.6623 35.4002 18.2811 34.9441 18.7372 34.488 19.1933 33.8692 19.4491 33.2241 19.4483 33.8692 19.4474 34.488 19.7033 34.9441 20.1594 35.4002 20.6155 35.656 21.2343 35.6552 21.8793L35.6552 26.7414C35.656 27.3864 35.4002 28.0052 34.9441 28.4613 34.488 28.9174 33.8692 29.1733 33.2241 29.1724L13.7759 29.1724C13.1308 29.1733 12.512 28.9174 12.0559 28.4613 11.5998 28.0052 11.344 27.3864 11.3448 26.7414L11.3448 21.8793C11.344 21.2343 11.5998 20.6155 12.0559 20.1594 12.512 19.7033 13.1308 19.4474 13.7759 19.4483 13.1308 19.4491 12.512 19.1933 12.0559 18.7372 11.5998 18.2811 11.344 17.6623 11.3448 17.0172L11.3448 12.1552C11.344 11.5102 11.5998 10.8913 12.0559 10.4352 12.512 9.97913 13.1308 9.72328 13.7759 9.72414 13.1308 9.725 12.512 9.46915 12.0559 9.01306 11.5998 8.55696 11.344 7.93812 11.3448 7.29311L11.3448 2.43104C11.344 1.78602 11.5998 1.16718 12.0559 0.711084 12.512 0.25499 13.1308-0.000859575 13.7759 2.16984e-06L33.2241 2.16984e-06C33.8692-0.000859575 34.488 0.25499 34.9441 0.711084 35.4002 1.16718 35.656 1.78602 35.6552 2.43104L35.6552 7.29311C35.656 7.93812 35.4002 8.55696 34.9441 9.01306 34.488 9.46915 33.8692 9.725 33.2241 9.72414Z" id="Shape" fill="#3F5C6C"/><circle cx="3.24138" cy="43.7586" r="3.24138" id="Oval" fill="#3F5C6C"/><circle cx="43.7586" cy="43.7586" r="3.24138" id="Oval" fill="#3F5C6C"/><circle cx="23.5" cy="43.7586" r="3.24138" id="Oval" fill="#3F5C6C"/><rect x="11.3448" y="9.72414" rx="3" width="24.3103" height="9.72414" id="Rectangle-path" fill="#547580"/><g id="Group" fill="#14A085" transform="translate(14.5862 3.24138)"><circle cx="16.2069" cy="1.62069" r="1.62069" id="Oval"/><path d="M0.810345 3.24138C0.362804 3.24138 0 2.87858 0 2.43103L0 0.810345C0 0.362804 0.362804 0 0.810345 0 1.25789 0 1.62069 0.362804 1.62069 0.810345L1.62069 2.43103C1.62069 2.87858 1.25789 3.24138 0.810345 3.24138Z" id="Shape"/><path d="M4.05172 3.24138C3.60418 3.24138 3.24138 2.87858 3.24138 2.43103L3.24138 0.810345C3.24138 0.362804 3.60418 0 4.05172 0 4.49927 0 4.86207 0.362804 4.86207 0.810345L4.86207 2.43103C4.86207 2.87858 4.49927 3.24138 4.05172 3.24138Z" id="Shape"/><path d="M7.2931 3.24138C6.84556 3.24138 6.48276 2.87858 6.48276 2.43103L6.48276 0.810345C6.48276 0.362804 6.84556 0 7.2931 0 7.74064 0 8.10345 0.362804 8.10345 0.810345L8.10345 2.43103C8.10345 2.87858 7.74064 3.24138 7.2931 3.24138Z" id="Shape"/><path d="M10.5345 3.24138C10.0869 3.24138 9.72414 2.87858 9.72414 2.43103L9.72414 0.810345C9.72414 0.362804 10.0869 0 10.5345 0 10.982 0 11.3448 0.362804 11.3448 0.810345L11.3448 2.43103C11.3448 2.87858 10.982 3.24138 10.5345 3.24138Z" id="Shape"/><circle cx="16.2069" cy="11.3448" r="1.62069" id="Oval"/><path d="M0.810345 12.9655C0.362804 12.9655 0 12.6027 0 12.1552L0 10.5345C0 10.0869 0.362804 9.72414 0.810345 9.72414 1.25789 9.72414 1.62069 10.0869 1.62069 10.5345L1.62069 12.1552C1.62069 12.6027 1.25789 12.9655 0.810345 12.9655Z" id="Shape"/><path d="M4.05172 12.9655C3.60418 12.9655 3.24138 12.6027 3.24138 12.1552L3.24138 10.5345C3.24138 10.0869 3.60418 9.72414 4.05172 9.72414 4.49927 9.72414 4.86207 10.0869 4.86207 10.5345L4.86207 12.1552C4.86207 12.6027 4.49927 12.9655 4.05172 12.9655Z" id="Shape"/><path d="M7.2931 12.9655C6.84556 12.9655 6.48276 12.6027 6.48276 12.1552L6.48276 10.5345C6.48276 10.0869 6.84556 9.72414 7.2931 9.72414 7.74064 9.72414 8.10345 10.0869 8.10345 10.5345L8.10345 12.1552C8.10345 12.6027 7.74064 12.9655 7.2931 12.9655Z" id="Shape"/><path d="M10.5345 12.9655C10.0869 12.9655 9.72414 12.6027 9.72414 12.1552L9.72414 10.5345C9.72414 10.0869 10.0869 9.72414 10.5345 9.72414 10.982 9.72414 11.3448 10.0869 11.3448 10.5345L11.3448 12.1552C11.3448 12.6027 10.982 12.9655 10.5345 12.9655Z" id="Shape"/><circle cx="16.2069" cy="21.069" r="1.62069" id="Oval"/><path d="M0.810345 22.6897C0.362804 22.6897 0 22.3269 0 21.8793L0 20.2586C0 19.8111 0.362804 19.4483 0.810345 19.4483 1.25789 19.4483 1.62069 19.8111 1.62069 20.2586L1.62069 21.8793C1.62069 22.3269 1.25789 22.6897 0.810345 22.6897Z" id="Shape"/><path d="M4.05172 22.6897C3.60418 22.6897 3.24138 22.3269 3.24138 21.8793L3.24138 20.2586C3.24138 19.8111 3.60418 19.4483 4.05172 19.4483 4.49927 19.4483 4.86207 19.8111 4.86207 20.2586L4.86207 21.8793C4.86207 22.3269 4.49927 22.6897 4.05172 22.6897Z" id="Shape"/><path d="M7.2931 22.6897C6.84556 22.6897 6.48276 22.3269 6.48276 21.8793L6.48276 20.2586C6.48276 19.8111 6.84556 19.4483 7.2931 19.4483 7.74064 19.4483 8.10345 19.8111 8.10345 20.2586L8.10345 21.8793C8.10345 22.3269 7.74064 22.6897 7.2931 22.6897Z" id="Shape"/><path d="M10.5345 22.6897C10.0869 22.6897 9.72414 22.3269 9.72414 21.8793L9.72414 20.2586C9.72414 19.8111 10.0869 19.4483 10.5345 19.4483 10.982 19.4483 11.3448 19.8111 11.3448 20.2586L11.3448 21.8793C11.3448 22.3269 10.982 22.6897 10.5345 22.6897Z" id="Shape"/></g></g></g></svg>